<svg width="18" height="18" viewBox="0 0 18 18" version="1.1" xmlns="http://www.w3.org/2000/svg" xmlns:xlink="http://www.w3.org/1999/xlink">
<title>card view icon</title>
<desc>Created using Figma</desc>
<g id="Canvas" transform="translate(-1302 -118)">
<g id="card view icon">
<g id="Rectangle 22">
<mask id="mask0_outline_ins">
<use xlink:href="#path0_fill" fill="white" transform="translate(1302 118)"/>
</mask>
<g mask="url(#mask0_outline_ins)">
<use xlink:href="#path1_stroke_2x" transform="translate(1302 118)" fill="#1C1B1A" fill-opacity="0.4"/>
</g>
</g>
<g id="Rectangle 22">
<mask id="mask1_outline_ins">
<use xlink:href="#path0_fill" fill="white" transform="translate(1302 128)"/>
</mask>
<g mask="url(#mask1_outline_ins)">
<use xlink:href="#path1_stroke_2x" transform="translate(1302 128)" fill="#1C1B1A" fill-opacity="0.4"/>
</g>
</g>
<g id="Rectangle 22">
<mask id="mask2_outline_ins">
<use xlink:href="#path0_fill" fill="white" transform="translate(1312 118)"/>
</mask>
<g mask="url(#mask2_outline_ins)">
<use xlink:href="#path1_stroke_2x" transform="translate(1312 118)" fill="#1C1B1A" fill-opacity="0.4"/>
</g>
</g>
<g id="Rectangle 22">
<mask id="mask3_outline_ins">
<use xlink:href="#path0_fill" fill="white" transform="translate(1312 128)"/>
</mask>
<g mask="url(#mask3_outline_ins)">
<use xlink:href="#path1_stroke_2x" transform="translate(1312 128)" fill="#1C1B1A" fill-opacity="0.4"/>
</g>
</g>
</g>
</g>
<defs>
<path id="path0_fill" d="M 0 1C 0 0.447715 0.447715 0 1 0L 7 0C 7.55228 0 8 0.447715 8 1L 8 7C 8 7.55228 7.55228 8 7 8L 1 8C 0.447715 8 0 7.55228 0 7L 0 1Z"/>
<path id="path1_stroke_2x" d="M 1 2L 7 2L 7 -2L 1 -2L 1 2ZM 6 1L 6 7L 10 7L 10 1L 6 1ZM 7 6L 1 6L 1 10L 7 10L 7 6ZM 2 7L 2 1L -2 1L -2 7L 2 7ZM 1 6C 1.55228 6 2 6.44772 2 7L -2 7C -2 8.65685 -0.656854 10 1 10L 1 6ZM 6 7C 6 6.44772 6.44772 6 7 6L 7 10C 8.65685 10 10 8.65685 10 7L 6 7ZM 7 2C 6.44772 2 6 1.55228 6 1L 10 1C 10 -0.656854 8.65685 -2 7 -2L 7 2ZM 1 -2C -0.656854 -2 -2 -0.656854 -2 1L 2 1C 2 1.55228 1.55228 2 1 2L 1 -2Z"/>
</defs>
</svg>
